<?xml version="1.0" encoding="UTF-8" standalone="no"?>
<!DOCTYPE svg PUBLIC "-//W3C//DTD SVG 1.1//EN" "http://www.w3.org/Graphics/SVG/1.1/DTD/svg11.dtd">
<svg version="1.1" xmlns="http://www.w3.org/2000/svg" xmlns:xlink="http://www.w3.org/1999/xlink" preserveAspectRatio="xMidYMid meet" viewBox="0 0 500 500" width="500" height="500"><defs><path d="M81.92 195.54C78.72 190.3 72.96 186.78 66.37 186.78C63.17 186.78 60.1 187.61 57.47 189.08C52.42 181.72 43.97 176.86 34.3 176.86C18.82 176.86 6.27 189.4 6.27 204.89C9.07 204.89 23.04 204.89 48.19 204.89L62.34 204.89L76.29 204.89L84.54 204.89C92.42 204.89 96.79 204.89 97.66 204.89C97.66 199 92.86 194.26 86.98 194.26C85.12 194.26 83.39 194.71 81.92 195.54Z" id="b2Op8Xs18K"></path><path d="M391.04 231.83L380.1 170.39L414.08 170.39L428.16 231.83L391.04 231.83Z" id="eIBW91FkE"></path><path d="M354.94 231.83L347.14 170.39L381.12 170.39L392.06 231.83L354.94 231.83Z" id="m4hk33IN2v"></path><path d="M316.8 231.83L312.13 170.39L346.11 170.39L353.92 231.83L316.8 231.83Z" id="c4xFrAc9t4"></path><path d="M279.68 231.83L278.14 170.39L312.13 170.39L316.8 231.83L279.68 231.83Z" id="c5tgpnBDUp"></path><path d="M242.56 231.83L244.16 170.39L278.14 170.39L279.68 231.83L242.56 231.83Z" id="bt9UzGZVE"></path><path d="M205.44 231.83L210.18 170.39L244.16 170.39L242.56 231.83L205.44 231.83Z" id="bIHCEv1Yo"></path><path d="M168.32 231.83L176.13 170.39L210.18 170.39L205.44 231.83L168.32 231.83Z" id="amRKKyM4l"></path><path d="M131.2 231.83L142.14 170.39L176.13 170.39L168.32 231.83L131.2 231.83Z" id="b2LFWm2Xz"></path><path d="M94.08 231.83L108.16 170.39L142.14 170.39L131.2 231.83L94.08 231.83Z" id="dNZbWF03g"></path><path d="M216.32 255.13C216.32 255.13 216.32 255.13 216.32 255.13C216.32 345.75 216.32 396.1 216.32 406.17C216.32 406.17 216.32 406.17 216.32 406.17C151.42 406.17 115.37 406.17 108.16 406.17C108.16 406.17 108.16 406.17 108.16 406.17C108.16 315.54 108.16 265.2 108.16 255.13C108.16 255.13 108.16 255.13 108.16 255.13C173.06 255.13 209.11 255.13 216.32 255.13Z" id="b7TjyllWk"></path><path d="M199.36 375.45C199.36 375.45 199.36 375.45 199.36 375.45C199.36 377.79 199.36 379.09 199.36 379.35C199.36 379.35 199.36 379.35 199.36 379.35C154.82 379.35 130.07 379.35 125.12 379.35C125.12 379.35 125.12 379.35 125.12 379.35C125.12 377.01 125.12 375.71 125.12 375.45C125.12 375.45 125.12 375.45 125.12 375.45C169.66 375.45 194.41 375.45 199.36 375.45Z" id="d5sAcaMXbR"></path><path d="M211.14 292.95C211.14 292.95 211.14 292.95 211.14 292.95C211.14 297.44 211.14 299.94 211.14 300.44C211.14 300.44 211.14 300.44 211.14 300.44C201.42 300.44 196.02 300.44 194.94 300.44C194.94 300.44 194.94 300.44 194.94 300.44C194.94 295.95 194.94 293.45 194.94 292.95C194.94 292.95 194.94 292.95 194.94 292.95C204.66 292.95 210.06 292.95 211.14 292.95Z" id="afbsDQ4lz"></path><path d="M118.98 279.9C118.98 279.9 118.98 279.9 118.98 279.9C118.98 284.39 118.98 286.88 118.98 287.38C118.98 287.38 118.98 287.38 118.98 287.38C112.49 287.38 108.88 287.38 108.16 287.38C108.16 287.38 108.16 287.38 108.16 287.38C108.16 282.89 108.16 280.4 108.16 279.9C108.16 279.9 108.16 279.9 108.16 279.9C114.65 279.9 118.25 279.9 118.98 279.9Z" id="d2BhtizTxF"></path><path d="M217.54 302.36C217.54 302.36 217.54 302.36 217.54 302.36C217.54 306.85 217.54 309.35 217.54 309.85C217.54 309.85 217.54 309.85 217.54 309.85C210.62 309.85 206.78 309.85 206.02 309.85C206.02 309.85 206.02 309.85 206.02 309.85C206.02 305.36 206.02 302.86 206.02 302.36C206.02 302.36 206.02 302.36 206.02 302.36C212.93 302.36 216.77 302.36 217.54 302.36Z" id="jcuM5jn2B"></path><path d="M215.23 381.91C215.23 381.91 215.23 381.91 215.23 381.91C215.23 386.4 215.23 388.9 215.23 389.4C215.23 389.4 215.23 389.4 215.23 389.4C210.36 389.4 207.65 389.4 207.1 389.4C207.1 389.4 207.1 389.4 207.1 389.4C207.1 384.91 207.1 382.41 207.1 381.91C207.1 381.91 207.1 381.91 207.1 381.91C211.98 381.91 214.69 381.91 215.23 381.91Z" id="d2p12dezp"></path><path d="M152.9 381.91C152.9 381.91 152.9 381.91 152.9 381.91C152.9 386.4 152.9 388.9 152.9 389.4C152.9 389.4 152.9 389.4 152.9 389.4C143.18 389.4 137.78 389.4 136.7 389.4C136.7 389.4 136.7 389.4 136.7 389.4C136.7 384.91 136.7 382.41 136.7 381.91C136.7 381.91 136.7 381.91 136.7 381.91C146.42 381.91 151.82 381.91 152.9 381.91Z" id="bBjENxbSQ"></path><path d="M143.94 391.32C143.94 391.32 143.94 391.32 143.94 391.32C143.94 395.81 143.94 398.31 143.94 398.81C143.94 398.81 143.94 398.81 143.94 398.81C134.22 398.81 128.82 398.81 127.74 398.81C127.74 398.81 127.74 398.81 127.74 398.81C127.74 394.32 127.74 391.82 127.74 391.32C127.74 391.32 127.74 391.32 127.74 391.32C137.46 391.32 142.86 391.32 143.94 391.32Z" id="ckexRZz37"></path><path d="M216.96 255.13C216.96 255.13 216.96 255.13 216.96 255.13C216.96 345.75 216.96 396.1 216.96 406.17C216.96 406.17 216.96 406.17 216.96 406.17C151.68 406.17 115.41 406.17 108.16 406.17C108.16 406.17 108.16 406.17 108.16 406.17C108.16 315.54 108.16 265.2 108.16 255.13C108.16 255.13 108.16 255.13 108.16 255.13C173.44 255.13 209.71 255.13 216.96 255.13Z" id="c3idHNOjWN"></path><path d="M195.52 260.25C195.52 260.25 195.52 260.25 195.52 260.25C195.52 326.3 195.52 362.99 195.52 370.33C195.52 370.33 195.52 370.33 195.52 370.33C155.58 370.33 133.4 370.33 128.96 370.33C128.96 370.33 128.96 370.33 128.96 370.33C128.96 304.28 128.96 267.59 128.96 260.25C128.96 260.25 128.96 260.25 128.96 260.25C168.9 260.25 191.08 260.25 195.52 260.25Z" id="aAzfILqgm"></path><path d="M147.33 364.06C146.37 364.06 145.6 363.29 145.6 362.33C145.6 362.25 145.6 361.64 145.6 361.56C145.6 360.6 146.37 359.83 147.33 359.83C149.78 359.83 169.39 359.83 171.84 359.83C172.8 359.83 173.57 360.6 173.57 361.56C173.57 361.64 173.57 362.25 173.57 362.33C173.63 363.29 172.8 364.06 171.84 364.06C166.94 364.06 149.78 364.06 147.33 364.06Z" id="a4e4vKdLS"></path><path d="M164.86 363.29C164.86 363.29 164.86 363.29 164.86 363.29C164.86 367.82 164.86 370.34 164.86 370.84C164.86 370.84 164.86 370.84 164.86 370.84C158.6 370.84 155.13 370.84 154.43 370.84C154.43 370.84 154.43 370.84 154.43 370.84C154.43 366.31 154.43 363.79 154.43 363.29C154.43 363.29 154.43 363.29 154.43 363.29C160.69 363.29 164.17 363.29 164.86 363.29Z" id="cmqJlw7lq"></path><path d="M178.24 371.03C178.24 356.52 178.24 348.45 178.24 346.84C178.24 345.43 179.39 344.28 180.8 344.28C180.8 344.28 180.8 344.28 180.8 344.28C182.21 344.28 183.36 345.43 183.36 346.84C183.36 348.45 183.36 356.52 183.36 371.03L178.24 371.03Z" id="b5TzN41Cj"></path><path d="M136.58 371.03C136.58 356.52 136.58 348.45 136.58 346.84C136.58 345.43 137.73 344.28 139.14 344.28C139.14 344.28 139.14 344.28 139.14 344.28C140.54 344.28 141.7 345.43 141.7 346.84C141.7 348.45 141.7 356.52 141.7 371.03L136.58 371.03Z" id="b1dqL34Y7"></path><path d="M195.52 366.87L195.52 320.47L160.64 370.33L193.09 370.33L195.52 366.87Z" id="b4IoqmvJWC"></path><path d="M195.52 314.26L195.52 303.77L148.93 370.33L156.22 370.33L195.52 314.26Z" id="b15V5tjLM"></path><path d="M195.52 295.58L195.52 290.33L139.52 370.33L143.17 370.33L195.52 295.58Z" id="a4RRFwG563"></path><path d="M195.52 260.25C195.52 260.25 195.52 260.25 195.52 260.25C195.52 326.3 195.52 362.99 195.52 370.33C195.52 370.33 195.52 370.33 195.52 370.33C155.58 370.33 133.4 370.33 128.96 370.33C128.96 370.33 128.96 370.33 128.96 370.33C128.96 304.28 128.96 267.59 128.96 260.25C128.96 260.25 128.96 260.25 128.96 260.25C168.9 260.25 191.08 260.25 195.52 260.25Z" id="egSjVmfh0"></path><path d="M199.36 370.33C199.36 370.33 199.36 370.33 199.36 370.33C199.36 374.94 199.36 377.5 199.36 378.01C199.36 378.01 199.36 378.01 199.36 378.01C154.82 378.01 130.07 378.01 125.12 378.01C125.12 378.01 125.12 378.01 125.12 378.01C125.12 373.4 125.12 370.84 125.12 370.33C125.12 370.33 125.12 370.33 125.12 370.33C169.66 370.33 194.41 370.33 199.36 370.33Z" id="agavK3hMf"></path><path d="M199.36 370.33C199.36 370.33 199.36 370.33 199.36 370.33C199.36 374.94 199.36 377.5 199.36 378.01C199.36 378.01 199.36 378.01 199.36 378.01C154.82 378.01 130.07 378.01 125.12 378.01C125.12 378.01 125.12 378.01 125.12 378.01C125.12 373.4 125.12 370.84 125.12 370.33C125.12 370.33 125.12 370.33 125.12 370.33C169.66 370.33 194.41 370.33 199.36 370.33Z" id="bYMuO1dIv"></path><path d="M305.26 444.59C305.26 444.59 305.26 444.59 305.26 444.59C252.27 444.59 222.83 444.59 216.94 444.59C216.94 444.59 216.94 444.59 216.94 444.59C216.94 332.23 216.94 269.81 216.94 257.33C216.94 257.33 216.94 257.33 216.94 257.33C269.93 257.33 299.37 257.33 305.26 257.33C305.26 257.33 305.26 257.33 305.26 257.33C305.26 369.69 305.26 432.11 305.26 444.59Z" id="cbm5XbkY4"></path><path d="M305.26 444.59C305.26 444.59 305.26 444.59 305.26 444.59C252.27 444.59 222.83 444.59 216.94 444.59C216.94 444.59 216.94 444.59 216.94 444.59C216.94 332.23 216.94 269.81 216.94 257.33C216.94 257.33 216.94 257.33 216.94 257.33C269.93 257.33 299.37 257.33 305.26 257.33C305.26 257.33 305.26 257.33 305.26 257.33C305.26 369.69 305.26 432.11 305.26 444.59Z" id="e1Dfackuwu"></path><path d="M295.68 267.8C295.68 267.8 295.68 267.8 295.68 267.8C295.68 345.64 295.68 388.88 295.68 397.53C295.68 397.53 295.68 397.53 295.68 397.53C254.21 397.53 231.17 397.53 226.56 397.53C226.56 397.53 226.56 397.53 226.56 397.53C226.56 319.69 226.56 276.45 226.56 267.8C226.56 267.8 226.56 267.8 226.56 267.8C268.03 267.8 291.07 267.8 295.68 267.8Z" id="babyF9Vjuz"></path><path d="M296.32 336.47L260.74 398.17L296.32 398.17L296.32 336.47Z" id="fx5tyLkW9"></path><path d="M295.68 329.69L295.68 308.44L244.29 397.53L256.51 397.53L295.68 329.69Z" id="aWiHwEwTO"></path><path d="M295.68 298.58L295.68 291.67L234.62 397.53L238.59 397.53L295.68 298.58Z" id="amk5rbkCM"></path><path d="M295.68 267.8C295.68 267.8 295.68 267.8 295.68 267.8C295.68 345.64 295.68 388.88 295.68 397.53C295.68 397.53 295.68 397.53 295.68 397.53C254.21 397.53 231.17 397.53 226.56 397.53C226.56 397.53 226.56 397.53 226.56 397.53C226.56 319.69 226.56 276.45 226.56 267.8C226.56 267.8 226.56 267.8 226.56 267.8C268.03 267.8 291.07 267.8 295.68 267.8Z" id="a1k5jwv7V"></path><path d="M221.95 406.17C221.95 406.17 221.95 406.17 221.95 406.17C221.95 429.21 221.95 442.01 221.95 444.57C221.95 444.57 221.95 444.57 221.95 444.57C146.38 444.57 104.4 444.57 96 444.57C96 444.57 96 444.57 96 444.57C96 421.53 96 408.73 96 406.17C96 406.17 96 406.17 96 406.17C171.57 406.17 213.56 406.17 221.95 406.17Z" id="a2Uopnv8nd"></path><path d="M101.38 406.17C101.38 406.17 101.38 406.17 101.38 406.17C101.38 429.21 101.38 442.01 101.38 444.57C101.38 444.57 101.38 444.57 101.38 444.57C98.15 444.57 96.36 444.57 96 444.57C96 444.57 96 444.57 96 444.57C96 421.53 96 408.73 96 406.17C96 406.17 96 406.17 96 406.17C99.23 406.17 101.02 406.17 101.38 406.17Z" id="abJglpQRd"></path><path d="M220.8 406.17C220.8 406.17 220.8 406.17 220.8 406.17C220.8 429.21 220.8 442.01 220.8 444.57C220.8 444.57 220.8 444.57 220.8 444.57C218.92 444.57 217.87 444.57 217.66 444.57C217.66 444.57 217.66 444.57 217.66 444.57C217.66 421.53 217.66 408.73 217.66 406.17C217.66 406.17 217.66 406.17 217.66 406.17C219.55 406.17 220.59 406.17 220.8 406.17Z" id="a1bu46uRhv"></path><path d="M221.95 406.17C221.95 406.17 221.95 406.17 221.95 406.17C221.95 429.21 221.95 442.01 221.95 444.57C221.95 444.57 221.95 444.57 221.95 444.57C146.38 444.57 104.4 444.57 96 444.57C96 444.57 96 444.57 96 444.57C96 421.53 96 408.73 96 406.17C96 406.17 96 406.17 96 406.17C171.57 406.17 213.56 406.17 221.95 406.17Z" id="bvtYmkoBo"></path><path d="M305.58 406.22C305.58 406.22 305.58 406.22 305.58 406.22C305.58 315.6 305.58 265.25 305.58 255.18C305.58 255.18 305.58 255.18 305.58 255.18C370.47 255.18 406.53 255.18 413.74 255.18C413.74 255.18 413.74 255.18 413.74 255.18C413.74 345.81 413.74 396.15 413.74 406.22C413.74 406.22 413.74 406.22 413.74 406.22C348.84 406.22 312.79 406.22 305.58 406.22Z" id="fgd5bqAHO"></path><path d="M404.86 391.32C404.86 391.32 404.86 391.32 404.86 391.32C404.86 395.81 404.86 398.31 404.86 398.81C404.86 398.81 404.86 398.81 404.86 398.81C395.15 398.81 389.75 398.81 388.67 398.81C388.67 398.81 388.67 398.81 388.67 398.81C388.67 394.32 388.67 391.82 388.67 391.32C388.67 391.32 388.67 391.32 388.67 391.32C398.39 391.32 403.78 391.32 404.86 391.32Z" id="c5mKiHKom"></path><path d="M321.73 391.32C321.73 391.32 321.73 391.32 321.73 391.32C321.73 395.81 321.73 398.31 321.73 398.81C321.73 398.81 321.73 398.81 321.73 398.81C312.01 398.81 306.62 398.81 305.54 398.81C305.54 398.81 305.54 398.81 305.54 398.81C305.54 394.32 305.54 391.82 305.54 391.32C305.54 391.32 305.54 391.32 305.54 391.32C315.25 391.32 320.65 391.32 321.73 391.32Z" id="c1RdbLuBSR"></path><path d="M395.14 381.91C395.14 381.91 395.14 381.91 395.14 381.91C395.14 386.4 395.14 388.9 395.14 389.4C395.14 389.4 395.14 389.4 395.14 389.4C385.42 389.4 380.02 389.4 378.94 389.4C378.94 389.4 378.94 389.4 378.94 389.4C378.94 384.91 378.94 382.41 378.94 381.91C378.94 381.91 378.94 381.91 378.94 381.91C388.66 381.91 394.06 381.91 395.14 381.91Z" id="c5z2IAEZ5"></path><path d="M326.72 276.63C326.72 276.63 326.72 276.63 326.72 276.63C326.72 281.12 326.72 283.62 326.72 284.12C326.72 284.12 326.72 284.12 326.72 284.12C320.77 284.12 317.46 284.12 316.8 284.12C316.8 284.12 316.8 284.12 316.8 284.12C316.8 279.63 316.8 277.13 316.8 276.63C316.8 276.63 316.8 276.63 316.8 276.63C322.75 276.63 326.06 276.63 326.72 276.63Z" id="aA9eKYRXy"></path><path d="M314.82 349.21C314.82 349.21 314.82 349.21 314.82 349.21C314.82 353.7 314.82 356.2 314.82 356.7C314.82 356.7 314.82 356.7 314.82 356.7C308.86 356.7 305.56 356.7 304.9 356.7C304.9 356.7 304.9 356.7 304.9 356.7C304.9 352.2 304.9 349.71 304.9 349.21C304.9 349.21 304.9 349.21 304.9 349.21C310.85 349.21 314.15 349.21 314.82 349.21Z" id="c20DSkFOiv"></path><path d="M304.94 406.22C304.94 406.22 304.94 406.22 304.94 406.22C304.94 315.6 304.94 265.25 304.94 255.18C304.94 255.18 304.94 255.18 304.94 255.18C370.22 255.18 406.48 255.18 413.74 255.18C413.74 255.18 413.74 255.18 413.74 255.18C413.74 345.81 413.74 396.15 413.74 406.22C413.74 406.22 413.74 406.22 413.74 406.22C348.46 406.22 312.19 406.22 304.94 406.22Z" id="bVSc1ta46"></path><path d="M392.9 260.25C392.9 260.25 392.9 260.25 392.9 260.25C392.9 326.3 392.9 362.99 392.9 370.33C392.9 370.33 392.9 370.33 392.9 370.33C352.96 370.33 330.77 370.33 326.34 370.33C326.34 370.33 326.34 370.33 326.34 370.33C326.34 304.28 326.34 267.59 326.34 260.25C326.34 260.25 326.34 260.25 326.34 260.25C366.27 260.25 388.46 260.25 392.9 260.25Z" id="bcwbHocbu"></path><path d="M374.53 364.06C375.49 364.06 376.26 363.29 376.26 362.33C376.26 362.25 376.26 361.64 376.26 361.56C376.26 360.6 375.49 359.83 374.53 359.83C372.08 359.83 352.47 359.83 350.02 359.83C349.06 359.83 348.29 360.6 348.29 361.56C348.29 361.64 348.29 362.25 348.29 362.33C348.29 363.29 349.06 364.06 350.02 364.06C354.92 364.06 372.08 364.06 374.53 364.06Z" id="cpu2gyXT0"></path><path d="M357.08 370.85C357.08 370.85 357.08 370.85 357.08 370.85C357.08 366.32 357.08 363.81 357.08 363.3C357.08 363.3 357.08 363.3 357.08 363.3C363.33 363.3 366.81 363.3 367.51 363.3C367.51 363.3 367.51 363.3 367.51 363.3C367.51 367.83 367.51 370.35 367.51 370.85C367.51 370.85 367.51 370.85 367.51 370.85C361.25 370.85 357.77 370.85 357.08 370.85Z" id="b95GU7q1va"></path><path d="M343.68 371.03C343.68 356.52 343.68 348.45 343.68 346.84C343.68 345.43 342.53 344.28 341.12 344.28C341.12 344.28 341.12 344.28 341.12 344.28C339.71 344.28 338.56 345.43 338.56 346.84C338.56 348.45 338.56 356.52 338.56 371.03L343.68 371.03Z" id="h1KIeIPZo6"></path><path d="M385.28 371.03C385.28 356.52 385.28 348.45 385.28 346.84C385.28 345.43 384.13 344.28 382.72 344.28C382.72 344.28 382.72 344.28 382.72 344.28C381.31 344.28 380.16 345.43 380.16 346.84C380.16 348.45 380.16 356.52 380.16 371.03L385.28 371.03Z" id="b2hakHwStG"></path><path d="M392.9 366.87L392.9 320.47L358.02 370.33L390.53 370.33L392.9 366.87Z" id="a1HhXMLWza"></path><path d="M392.9 314.26L392.9 303.77L346.3 370.33L353.66 370.33L392.9 314.26Z" id="a1wuf2EyMj"></path><path d="M392.9 295.58L392.9 290.33L336.9 370.33L340.54 370.33L392.9 295.58Z" id="bAQ3WIqYU"></path><path d="M392.9 260.25C392.9 260.25 392.9 260.25 392.9 260.25C392.9 326.3 392.9 362.99 392.9 370.33C392.9 370.33 392.9 370.33 392.9 370.33C352.96 370.33 330.77 370.33 326.34 370.33C326.34 370.33 326.34 370.33 326.34 370.33C326.34 304.28 326.34 267.59 326.34 260.25C326.34 260.25 326.34 260.25 326.34 260.25C366.27 260.25 388.46 260.25 392.9 260.25Z" id="d9b9VGnEn"></path><path d="M396.74 375.45C396.74 375.45 396.74 375.45 396.74 375.45C396.74 377.79 396.74 379.09 396.74 379.35C396.74 379.35 396.74 379.35 396.74 379.35C352.19 379.35 327.45 379.35 322.5 379.35C322.5 379.35 322.5 379.35 322.5 379.35C322.5 377.01 322.5 375.71 322.5 375.45C322.5 375.45 322.5 375.45 322.5 375.45C367.04 375.45 391.79 375.45 396.74 375.45Z" id="e2b3v44ISX"></path><path d="M322.54 378.02C322.54 378.02 322.54 378.02 322.54 378.02C322.54 373.41 322.54 370.85 322.54 370.34C322.54 370.34 322.54 370.34 322.54 370.34C367.08 370.34 391.83 370.34 396.78 370.34C396.78 370.34 396.78 370.34 396.78 370.34C396.78 374.95 396.78 377.51 396.78 378.02C396.78 378.02 396.78 378.02 396.78 378.02C352.23 378.02 327.49 378.02 322.54 378.02Z" id="e6FBrrCuET"></path><path d="M322.54 378.02C322.54 378.02 322.54 378.02 322.54 378.02C322.54 373.41 322.54 370.85 322.54 370.34C322.54 370.34 322.54 370.34 322.54 370.34C367.08 370.34 391.83 370.34 396.78 370.34C396.78 370.34 396.78 370.34 396.78 370.34C396.78 374.95 396.78 377.51 396.78 378.02C396.78 378.02 396.78 378.02 396.78 378.02C352.23 378.02 327.49 378.02 322.54 378.02Z" id="f4jmfcErPT"></path><path d="M300.93 444.62C300.93 444.62 300.93 444.62 300.93 444.62C300.93 421.58 300.93 408.78 300.93 406.22C300.93 406.22 300.93 406.22 300.93 406.22C375.88 406.22 417.53 406.22 425.85 406.22C425.85 406.22 425.85 406.22 425.85 406.22C425.85 429.26 425.85 442.06 425.85 444.62C425.85 444.62 425.85 444.62 425.85 444.62C350.9 444.62 309.25 444.62 300.93 444.62Z" id="c22iJyZjKj"></path><path d="M305.6 406.17C305.6 406.17 305.6 406.17 305.6 406.17C305.6 429.21 305.6 442.01 305.6 444.57C305.6 444.57 305.6 444.57 305.6 444.57C302.84 444.57 301.3 444.57 300.99 444.57C300.99 444.57 300.99 444.57 300.99 444.57C300.99 421.53 300.99 408.73 300.99 406.17C300.99 406.17 300.99 406.17 300.99 406.17C303.76 406.17 305.29 406.17 305.6 406.17Z" id="a1rwhVkaaq"></path><path d="M300.93 444.62C300.93 444.62 300.93 444.62 300.93 444.62C300.93 421.58 300.93 408.78 300.93 406.22C300.93 406.22 300.93 406.22 300.93 406.22C375.88 406.22 417.53 406.22 425.85 406.22C425.85 406.22 425.85 406.22 425.85 406.22C425.85 429.26 425.85 442.06 425.85 444.62C425.85 444.62 425.85 444.62 425.85 444.62C350.9 444.62 309.25 444.62 300.93 444.62Z" id="bSBB2S6P"></path><path d="M238.98 358.68C237.38 358.68 236.1 357.4 236.1 355.8C236.1 352.71 236.1 327.98 236.1 324.89C236.1 323.29 237.38 322.01 238.98 322.01C238.98 322.01 238.98 322.01 238.98 322.01C240.58 322.01 241.86 323.29 241.86 324.89C241.86 327.98 241.86 352.71 241.86 355.8C241.86 357.4 240.58 358.68 238.98 358.68C238.98 358.68 238.98 358.68 238.98 358.68Z" id="b18XGk8bQf"></path><path d="M353.92 235.67L316.8 235.67L279.68 235.67L242.56 235.67L205.44 235.67L168.32 235.67L131.2 235.67L108.16 235.67C108.16 259.13 108.16 272.17 108.16 274.78C109.57 275.16 111.1 275.35 112.64 275.35C112.64 275.35 112.64 275.35 112.64 275.35C122.88 275.35 131.2 267.03 131.2 256.79C131.2 267.03 139.52 275.35 149.76 275.35C149.76 275.35 149.76 275.35 149.76 275.35C160 275.35 168.32 267.03 168.32 256.79C168.32 267.03 176.64 275.35 186.88 275.35C186.88 275.35 186.88 275.35 186.88 275.35C197.12 275.35 205.44 267.03 205.44 256.79C205.44 267.03 213.76 275.35 224 275.35C224 275.35 224 275.35 224 275.35C234.24 275.35 242.56 267.03 242.56 256.79C242.56 267.03 250.88 275.35 261.12 275.35C261.12 275.35 261.12 275.35 261.12 275.35C271.36 275.35 279.68 267.03 279.68 256.79C279.68 267.03 288 275.35 298.24 275.35C298.24 275.35 298.24 275.35 298.24 275.35C308.48 275.35 316.8 267.03 316.8 256.79C316.8 267.03 325.12 275.35 335.36 275.35C335.36 275.35 335.36 275.35 335.36 275.35C345.6 275.35 353.92 267.03 353.92 256.79C353.92 267.03 362.24 275.35 372.48 275.35C372.48 275.35 372.48 275.35 372.48 275.35C382.72 275.35 391.04 267.03 391.04 256.79C391.04 267.03 399.36 275.35 409.6 275.35C409.6 275.35 409.6 275.35 409.6 275.35C411.01 275.35 412.42 275.16 413.7 274.9C413.7 272.29 413.7 259.21 413.7 235.67L391.04 235.67L353.92 235.67Z" id="b265HfcFn2"></path><path d="M372.48 271.51C362.24 271.51 353.92 263.19 353.92 252.95C353.92 251.54 353.92 244.5 353.92 231.83L391.04 231.83C391.04 244.5 391.04 251.54 391.04 252.95C391.04 263.19 382.72 271.51 372.48 271.51C372.48 271.51 372.48 271.51 372.48 271.51Z" id="a1EJ1WnrEE"></path><path d="M335.36 271.51C325.12 271.51 316.8 263.19 316.8 252.95C316.8 251.54 316.8 244.5 316.8 231.83L353.92 231.83C353.92 244.5 353.92 251.54 353.92 252.95C353.92 263.19 345.6 271.51 335.36 271.51C335.36 271.51 335.36 271.51 335.36 271.51Z" id="d2tLf5y0f9"></path><path d="M298.24 271.51C288 271.51 279.68 263.19 279.68 252.95C279.68 251.54 279.68 244.5 279.68 231.83L316.8 231.83C316.8 244.5 316.8 251.54 316.8 252.95C316.8 263.19 308.48 271.51 298.24 271.51C298.24 271.51 298.24 271.51 298.24 271.51Z" id="bcjVOlOiO"></path><path d="M261.12 271.51C250.88 271.51 242.56 263.19 242.56 252.95C242.56 251.54 242.56 244.5 242.56 231.83L279.68 231.83C279.68 244.5 279.68 251.54 279.68 252.95C279.68 263.19 271.36 271.51 261.12 271.51C261.12 271.51 261.12 271.51 261.12 271.51Z" id="eany41Y2N"></path><path d="M224 271.51C213.76 271.51 205.44 263.19 205.44 252.95C205.44 251.54 205.44 244.5 205.44 231.83L242.56 231.83C242.56 244.5 242.56 251.54 242.56 252.95C242.56 263.19 234.24 271.51 224 271.51C224 271.51 224 271.51 224 271.51Z" id="aiyp6vOnO"></path><path d="M186.88 271.51C176.64 271.51 168.32 263.19 168.32 252.95C168.32 251.54 168.32 244.5 168.32 231.83L205.44 231.83C205.44 244.5 205.44 251.54 205.44 252.95C205.44 263.19 197.12 271.51 186.88 271.51C186.88 271.51 186.88 271.51 186.88 271.51Z" id="b5ORhCa5W"></path><path d="M149.76 271.51C139.52 271.51 131.2 263.19 131.2 252.95C131.2 251.54 131.2 244.5 131.2 231.83L168.32 231.83C168.32 244.5 168.32 251.54 168.32 252.95C168.32 263.19 160 271.51 149.76 271.51C149.76 271.51 149.76 271.51 149.76 271.51Z" id="a34h3H5lGF"></path><path d="M112.64 271.51C102.4 271.51 94.08 263.19 94.08 252.95C94.08 251.54 94.08 244.5 94.08 231.83L131.2 231.83C131.2 244.5 131.2 251.54 131.2 252.95C131.2 263.19 122.88 271.51 112.64 271.51C112.64 271.51 112.64 271.51 112.64 271.51Z" id="b1ubXPhRQQ"></path><path d="M372.48 271.51C362.24 271.51 353.92 263.19 353.92 252.95C353.92 251.54 353.92 244.5 353.92 231.83L391.04 231.83C391.04 244.5 391.04 251.54 391.04 252.95C391.04 263.19 382.72 271.51 372.48 271.51C372.48 271.51 372.48 271.51 372.48 271.51Z" id="c1AR59xLDP"></path><path d="M335.36 271.51C325.12 271.51 316.8 263.19 316.8 252.95C316.8 251.54 316.8 244.5 316.8 231.83L353.92 231.83C353.92 244.5 353.92 251.54 353.92 252.95C353.92 263.19 345.6 271.51 335.36 271.51C335.36 271.51 335.36 271.51 335.36 271.51Z" id="b1cI0GrIEx"></path><path d="M298.24 271.51C288 271.51 279.68 263.19 279.68 252.95C279.68 251.54 279.68 244.5 279.68 231.83L316.8 231.83C316.8 244.5 316.8 251.54 316.8 252.95C316.8 263.19 308.48 271.51 298.24 271.51C298.24 271.51 298.24 271.51 298.24 271.51Z" id="btqGxTOEN"></path><path d="M261.12 271.51C250.88 271.51 242.56 263.19 242.56 252.95C242.56 251.54 242.56 244.5 242.56 231.83L279.68 231.83C279.68 244.5 279.68 251.54 279.68 252.95C279.68 263.19 271.36 271.51 261.12 271.51C261.12 271.51 261.12 271.51 261.12 271.51Z" id="asDuHjPr2"></path><path d="M224 271.51C213.76 271.51 205.44 263.19 205.44 252.95C205.44 251.54 205.44 244.5 205.44 231.83L242.56 231.83C242.56 244.5 242.56 251.54 242.56 252.95C242.56 263.19 234.24 271.51 224 271.51C224 271.51 224 271.51 224 271.51Z" id="beOschPV3"></path><path d="M186.88 271.51C176.64 271.51 168.32 263.19 168.32 252.95C168.32 251.54 168.32 244.5 168.32 231.83L205.44 231.83C205.44 244.5 205.44 251.54 205.44 252.95C205.44 263.19 197.12 271.51 186.88 271.51C186.88 271.51 186.88 271.51 186.88 271.51Z" id="byX8muSod"></path><path d="M149.76 271.51C139.52 271.51 131.2 263.19 131.2 252.95C131.2 251.54 131.2 244.5 131.2 231.83L168.32 231.83C168.32 244.5 168.32 251.54 168.32 252.95C168.32 263.19 160 271.51 149.76 271.51C149.76 271.51 149.76 271.51 149.76 271.51Z" id="b9dS1ETaO"></path><path d="M112.64 271.51C102.4 271.51 94.08 263.19 94.08 252.95C94.08 251.54 94.08 244.5 94.08 231.83L131.2 231.83C131.2 244.5 131.2 251.54 131.2 252.95C131.2 263.19 122.88 271.51 112.64 271.51C112.64 271.51 112.64 271.51 112.64 271.51Z" id="b1jFK0f6SL"></path><path d="M391.04 231.83L380.1 170.39L414.08 170.39L428.16 231.83L391.04 231.83Z" id="a1aDI21182"></path><path d="M353.92 231.83L346.11 170.39L380.1 170.39L391.04 231.83L353.92 231.83Z" id="a1TSN3UiZM"></path><path d="M316.8 231.83L312.13 170.39L346.11 170.39L353.92 231.83L316.8 231.83Z" id="g103fpYIua"></path><path d="M279.68 231.83L278.14 170.39L312.13 170.39L316.8 231.83L279.68 231.83Z" id="aB3alK7i3"></path><path d="M242.56 231.83L244.16 170.39L278.14 170.39L279.68 231.83L242.56 231.83Z" id="h1FkXlmZZ"></path><path d="M205.44 231.83L210.18 170.39L244.16 170.39L242.56 231.83L205.44 231.83Z" id="f3BOqMVMZi"></path><path d="M168.32 231.83L176.13 170.39L210.18 170.39L205.44 231.83L168.32 231.83Z" id="jiGhcom39"></path><path d="M94.08 231.83L108.16 170.39L142.14 170.39L131.2 231.83L94.08 231.83Z" id="ayrkDFLV3"></path><path d="M414.08 158.87C414.08 158.87 414.08 158.87 414.08 158.87C414.08 165.78 414.08 169.62 414.08 170.39C414.08 170.39 414.08 170.39 414.08 170.39C230.53 170.39 128.55 170.39 108.16 170.39C108.16 170.39 108.16 170.39 108.16 170.39C108.16 163.48 108.16 159.64 108.16 158.87C108.16 158.87 108.16 158.87 108.16 158.87C291.71 158.87 393.69 158.87 414.08 158.87Z" id="ak2G8kwYk"></path><path d="M414.08 158.87C414.08 158.87 414.08 158.87 414.08 158.87C414.08 161.25 414.08 162.58 414.08 162.84C414.08 162.84 414.08 162.84 414.08 162.84C230.53 162.84 128.55 162.84 108.16 162.84C108.16 162.84 108.16 162.84 108.16 162.84C108.16 160.46 108.16 159.14 108.16 158.87C108.16 158.87 108.16 158.87 108.16 158.87C291.71 158.87 393.69 158.87 414.08 158.87Z" id="ehLcETToj"></path><path d="M414.08 158.87C414.08 158.87 414.08 158.87 414.08 158.87C414.08 165.78 414.08 169.62 414.08 170.39C414.08 170.39 414.08 170.39 414.08 170.39C230.53 170.39 128.55 170.39 108.16 170.39C108.16 170.39 108.16 170.39 108.16 170.39C108.16 163.48 108.16 159.64 108.16 158.87C108.16 158.87 108.16 158.87 108.16 158.87C291.71 158.87 393.69 158.87 414.08 158.87Z" id="bwthlyzC"></path><path d="M63.04 370.84L63.04 407.32" id="b4lcaC8R3l"></path><path d="M71.23 371.99C63.68 371.99 57.54 365.85 57.54 358.3C57.54 355.15 57.54 329.96 57.54 326.81C57.54 319.26 63.68 313.11 71.23 313.11C71.62 313.11 74.69 313.11 75.07 313.11C82.62 313.11 88.77 319.26 88.77 326.81C88.77 329.96 88.77 355.15 88.77 358.3C88.83 365.85 82.69 371.99 75.07 371.99C74.3 371.99 71.62 371.99 71.23 371.99Z" id="aYGEumHzp"></path><path d="M71.23 371.99C63.68 371.99 57.54 365.85 57.54 358.3C57.54 355.15 57.54 329.96 57.54 326.81C57.54 319.26 63.68 313.11 71.23 313.11C71.62 313.11 74.69 313.11 75.07 313.11C82.62 313.11 88.77 319.26 88.77 326.81C88.77 329.96 88.77 355.15 88.77 358.3C88.83 365.85 82.69 371.99 75.07 371.99C74.3 371.99 71.62 371.99 71.23 371.99Z" id="bxwOVpPiM"></path><path d="M52.67 383.58L54.59 393.3L63.04 396.5" id="bEQXvCzOG"></path><path d="M48.64 385.18C42.43 385.18 37.38 380.12 37.38 373.91C37.38 372.24 37.38 358.88 37.38 357.21C37.38 351 42.43 345.94 48.64 345.94C48.64 345.94 48.64 345.94 48.64 345.94C54.85 345.94 59.9 351 59.9 357.21C59.9 358.88 59.9 372.24 59.9 373.91C59.9 380.12 54.85 385.18 48.64 385.18C48.64 385.18 48.64 385.18 48.64 385.18Z" id="e1qzJ5aoMs"></path><path d="M48.64 385.18C42.43 385.18 37.38 380.12 37.38 373.91C37.38 372.24 37.38 358.88 37.38 357.21C37.38 351 42.43 345.94 48.64 345.94C48.64 345.94 48.64 345.94 48.64 345.94C54.85 345.94 59.9 351 59.9 357.21C59.9 358.88 59.9 372.24 59.9 373.91C59.9 380.12 54.85 385.18 48.64 385.18C48.64 385.18 48.64 385.18 48.64 385.18Z" id="b8JrqhDXZt"></path><path d="M48.51 443.54L44.61 405.46L81.54 405.46L77.63 443.54L48.51 443.54Z" id="a1erHrw2I6"></path><path d="M66.5 443.54L77.63 443.54L81.54 405.46L70.46 405.46L66.5 443.54Z" id="bbDMORHaB"></path><path d="M80.19 413.4C80.19 413.4 80.19 413.4 80.19 413.4C80.19 416.59 80.19 418.36 80.19 418.71C80.19 418.71 80.19 418.71 80.19 418.71C71.9 418.71 67.29 418.71 66.37 418.71C66.37 418.71 66.37 418.71 66.37 418.71C66.37 415.52 66.37 413.75 66.37 413.4C66.37 413.4 66.37 413.4 66.37 413.4C74.66 413.4 79.27 413.4 80.19 413.4Z" id="bAMA10RfF"></path><path d="M57.86 422.74C57.86 422.74 57.86 422.74 57.86 422.74C57.86 425.93 57.86 427.7 57.86 428.06C57.86 428.06 57.86 428.06 57.86 428.06C50.79 428.06 46.87 428.06 46.08 428.06C46.08 428.06 46.08 428.06 46.08 428.06C46.08 424.87 46.08 423.1 46.08 422.74C46.08 422.74 46.08 422.74 46.08 422.74C53.15 422.74 57.07 422.74 57.86 422.74Z" id="iDuKrpgbP"></path><path d="M78.59 431.06C78.59 431.06 78.59 431.06 78.59 431.06C78.59 434.25 78.59 436.02 78.59 436.38C78.59 436.38 78.59 436.38 78.59 436.38C68.88 436.38 63.48 436.38 62.4 436.38C62.4 436.38 62.4 436.38 62.4 436.38C62.4 433.19 62.4 431.42 62.4 431.06C62.4 431.06 62.4 431.06 62.4 431.06C72.12 431.06 77.51 431.06 78.59 431.06Z" id="a25ZdrKid"></path><path d="M48.51 443.54L44.61 405.46L81.54 405.46L77.63 443.54L48.51 443.54Z" id="d3q5W2Uw4h"></path><path d="M63.74 393.11L72.83 388.12L72.83 342.55" id="f1LuZsLOk"></path><path d="M73.28 356.57L80.19 351" id="g1zQXc9usg"></path><path d="M280.48 309.17C280.48 309.17 280.48 309.17 280.48 309.17C282.5 318.68 283.62 323.95 283.85 325.01C283.85 325.01 283.85 325.01 283.85 325.01C263.57 329.32 252.3 331.72 250.05 332.2C250.05 332.2 250.05 332.2 250.05 332.2C248.03 322.69 246.9 317.41 246.68 316.36C246.68 316.36 246.68 316.36 246.68 316.36C266.96 312.05 278.23 309.65 280.48 309.17Z" id="i1nP0jrXub"></path><path d="M280.48 309.17C280.48 309.17 280.48 309.17 280.48 309.17C282.5 318.68 283.62 323.95 283.85 325.01C283.85 325.01 283.85 325.01 283.85 325.01C263.57 329.32 252.3 331.72 250.05 332.2C250.05 332.2 250.05 332.2 250.05 332.2C248.03 322.69 246.9 317.41 246.68 316.36C246.68 316.36 246.68 316.36 246.68 316.36C266.96 312.05 278.23 309.65 280.48 309.17Z" id="bmWdWAsOe"></path><path d="M275.07 315.54C275.9 315.35 276.67 315.86 276.86 316.7C276.93 316.98 277.44 319.29 277.5 319.58C277.7 320.41 277.18 321.18 276.35 321.37C274.27 321.81 257.63 325.34 255.55 325.78C254.72 325.98 253.95 325.46 253.76 324.63C253.7 324.34 253.18 322.04 253.12 321.75C252.93 320.92 253.44 320.15 254.27 319.96C258.43 319.08 272.99 315.99 275.07 315.54Z" id="a3OwYnvrQs"></path><path d="M257.22 313.43L262.53 297.88L268.99 310.49" id="a5UxwsKZxt"></path><path d="M262.53 296.79C261.47 296.79 260.61 297.65 260.61 298.71C260.61 299.77 261.47 300.63 262.53 300.63C263.59 300.63 264.45 299.77 264.45 298.71C264.45 297.65 263.59 296.79 262.53 296.79Z" id="d16yq3NqN"></path><path d="M162.05 391.32C162.05 391.32 162.05 391.32 162.05 391.32C162.05 395.81 162.05 398.31 162.05 398.81C162.05 398.81 162.05 398.81 162.05 398.81C152.33 398.81 146.94 398.81 145.86 398.81C145.86 398.81 145.86 398.81 145.86 398.81C145.86 394.32 145.86 391.82 145.86 391.32C145.86 391.32 145.86 391.32 145.86 391.32C155.57 391.32 160.97 391.32 162.05 391.32Z" id="j1BlAWH5wt"></path><path d="M65.15 337.05L68.29 342.55" id="b1lMHGYXfZ"></path><path d="M67.78 324.95L70.91 330.39" id="f29ynmRhTm"></path><path d="M75.14 323.93L78.27 329.37" id="b8gScsorHl"></path><path d="M46.53 367.83L48.45 371.1" id="c2Cexn4iqF"></path><path d="M47.62 358.81L49.6 362.14" id="bgZoTAc71"></path><path d="M409.6 271.51C399.36 271.51 391.04 263.19 391.04 252.95C391.04 251.54 391.04 244.5 391.04 231.83L428.16 231.83C428.16 244.5 428.16 251.54 428.16 252.95C428.16 263.19 419.84 271.51 409.6 271.51C409.6 271.51 409.6 271.51 409.6 271.51Z" id="a3eUQIxd8L"></path><path d="M409.6 271.51C399.36 271.51 391.04 263.19 391.04 252.95C391.04 251.54 391.04 244.5 391.04 231.83L428.16 231.83C428.16 244.5 428.16 251.54 428.16 252.95C428.16 263.19 419.84 271.51 409.6 271.51C409.6 271.51 409.6 271.51 409.6 271.51Z" id="fRT7foR7"></path><path d="M433.86 345.43C433.86 345.43 433.86 345.43 433.86 345.43C433.86 404.95 433.86 438.02 433.86 444.63C433.86 444.63 433.86 444.63 433.86 444.63C419.26 444.63 411.16 444.63 409.54 444.63C409.54 444.63 409.54 444.63 409.54 444.63C409.54 385.11 409.54 352.05 409.54 345.43C409.54 345.43 409.54 345.43 409.54 345.43C424.13 345.43 432.23 345.43 433.86 345.43Z" id="a7WcW4k1T"></path><path d="M427.26 345.43C427.26 345.43 427.26 345.43 427.26 345.43C427.26 404.95 427.26 438.02 427.26 444.63C427.26 444.63 427.26 444.63 427.26 444.63C419.85 444.63 415.74 444.63 414.91 444.63C414.91 444.63 414.91 444.63 414.91 444.63C414.91 385.11 414.91 352.05 414.91 345.43C414.91 345.43 414.91 345.43 414.91 345.43C422.32 345.43 426.44 345.43 427.26 345.43Z" id="b5oFidH5IU"></path><path d="M433.86 345.43C433.86 345.43 433.86 345.43 433.86 345.43C433.86 404.95 433.86 438.02 433.86 444.63C433.86 444.63 433.86 444.63 433.86 444.63C419.26 444.63 411.16 444.63 409.54 444.63C409.54 444.63 409.54 444.63 409.54 444.63C409.54 385.11 409.54 352.05 409.54 345.43C409.54 345.43 409.54 345.43 409.54 345.43C424.13 345.43 432.23 345.43 433.86 345.43Z" id="dgszm1bAx"></path><path d="M419.78 358.81C418.05 358.81 416.7 357.46 416.7 355.74C416.7 355.14 416.7 352.18 416.7 346.84L426.11 346.84C426.11 352.18 426.11 355.14 426.11 355.74C426.11 357.4 424.7 358.81 423.04 358.81C422.39 358.81 420.1 358.81 419.78 358.81Z" id="afwCkvjmX"></path><path d="M16.58 444.57L463.42 444.57" id="b4vVelspNB"></path><path d="M461.5 134.49C457.79 125.59 449.02 119.32 438.72 119.32C425.09 119.32 414.08 130.39 414.08 143.96C416.95 143.96 431.28 143.96 457.09 143.96L463.42 143.96C474.41 143.96 480.51 143.96 481.73 143.96C481.73 137.18 476.22 131.67 469.38 131.67C466.37 131.67 463.62 132.76 461.5 134.49Z" id="kbsQEDnH3"></path><path d="M274.56 102.36C271.49 102.36 268.61 103.19 266.11 104.54C263.42 99.99 258.62 96.79 253.12 96.22C251.26 88.66 244.48 83.1 236.35 83.1C234.11 83.1 232.06 83.54 230.08 84.25C224.06 74.58 213.31 68.12 201.02 68.12C184.83 68.12 171.26 79.38 167.68 94.42C165.12 93.27 162.3 92.7 159.36 92.7C147.9 92.7 138.69 101.98 138.69 113.37C138.69 115.42 139.01 117.46 139.58 119.32C149.73 119.32 200.46 119.32 291.78 119.32C286.57 108.01 280.83 102.36 274.56 102.36Z" id="c5uqDgaZ7L"></path></defs><g><g><g><use xlink:href="#b2Op8Xs18K" opacity="1" fill="#8f2d56" fill-opacity="1"></use><g><use xlink:href="#b2Op8Xs18K" opacity="1" fill-opacity="0" stroke="#000000" stroke-width="1" stroke-opacity="0"></use></g></g><g><use xlink:href="#eIBW91FkE" opacity="1" fill="#ffffff" fill-opacity="1"></use><g><use xlink:href="#eIBW91FkE" opacity="1" fill-opacity="0" stroke="#000000" stroke-width="1" stroke-opacity="0"></use></g></g><g><use xlink:href="#m4hk33IN2v" opacity="1" fill="#ffbc42" fill-opacity="1"></use><g><use xlink:href="#m4hk33IN2v" opacity="1" fill-opacity="0" stroke="#000000" stroke-width="1" stroke-opacity="0"></use></g></g><g><use xlink:href="#c4xFrAc9t4" opacity="1" fill="#ffffff" fill-opacity="1"></use><g><use xlink:href="#c4xFrAc9t4" opacity="1" fill-opacity="0" stroke="#000000" stroke-width="1" stroke-opacity="0"></use></g></g><g><use xlink:href="#c5tgpnBDUp" opacity="1" fill="#ffbc42" fill-opacity="1"></use><g><use xlink:href="#c5tgpnBDUp" opacity="1" fill-opacity="0" stroke="#000000" stroke-width="1" stroke-opacity="0"></use></g></g><g><use xlink:href="#bt9UzGZVE" opacity="1" fill="#ffffff" fill-opacity="1"></use><g><use xlink:href="#bt9UzGZVE" opacity="1" fill-opacity="0" stroke="#000000" stroke-width="1" stroke-opacity="0"></use></g></g><g><use xlink:href="#bIHCEv1Yo" opacity="1" fill="#ffbc42" fill-opacity="1"></use><g><use xlink:href="#bIHCEv1Yo" opacity="1" fill-opacity="0" stroke="#000000" stroke-width="1" stroke-opacity="0"></use></g></g><g><use xlink:href="#amRKKyM4l" opacity="1" fill="#ffffff" fill-opacity="1"></use><g><use xlink:href="#amRKKyM4l" opacity="1" fill-opacity="0" stroke="#000000" stroke-width="1" stroke-opacity="0"></use></g></g><g><use xlink:href="#b2LFWm2Xz" opacity="1" fill="#ffbc42" fill-opacity="1"></use><g><use xlink:href="#b2LFWm2Xz" opacity="1" fill-opacity="0" stroke="#000000" stroke-width="1" stroke-opacity="0"></use></g></g><g><use xlink:href="#dNZbWF03g" opacity="1" fill="#ffffff" fill-opacity="1"></use><g><use xlink:href="#dNZbWF03g" opacity="1" fill-opacity="0" stroke="#000000" stroke-width="1" stroke-opacity="0"></use></g></g><g><use xlink:href="#b7TjyllWk" opacity="1" fill="#f5969c" fill-opacity="1"></use><g><use xlink:href="#b7TjyllWk" opacity="1" fill-opacity="0" stroke="#000000" stroke-width="1" stroke-opacity="0"></use></g></g><g><use xlink:href="#d5sAcaMXbR" opacity="1" fill="#282828" fill-opacity="1"></use><g><use xlink:href="#d5sAcaMXbR" opacity="1" fill-opacity="0" stroke="#282828" stroke-width="6" stroke-opacity="1"></use></g></g><g><use xlink:href="#afbsDQ4lz" opacity="1" fill="#8f2d56" fill-opacity="1"></use><g><use xlink:href="#afbsDQ4lz" opacity="1" fill-opacity="0" stroke="#000000" stroke-width="1" stroke-opacity="0"></use></g></g><g><use xlink:href="#d2BhtizTxF" opacity="1" fill="#8f2d56" fill-opacity="1"></use><g><use xlink:href="#d2BhtizTxF" opacity="1" fill-opacity="0" stroke="#000000" stroke-width="1" stroke-opacity="0"></use></g></g><g><use xlink:href="#jcuM5jn2B" opacity="1" fill="#8f2d56" fill-opacity="1"></use><g><use xlink:href="#jcuM5jn2B" opacity="1" fill-opacity="0" stroke="#000000" stroke-width="1" stroke-opacity="0"></use></g></g><g><use xlink:href="#d2p12dezp" opacity="1" fill="#8f2d56" fill-opacity="1"></use><g><use xlink:href="#d2p12dezp" opacity="1" fill-opacity="0" stroke="#000000" stroke-width="1" stroke-opacity="0"></use></g></g><g><use xlink:href="#bBjENxbSQ" opacity="1" fill="#8f2d56" fill-opacity="1"></use><g><use xlink:href="#bBjENxbSQ" opacity="1" fill-opacity="0" stroke="#000000" stroke-width="1" stroke-opacity="0"></use></g></g><g><use xlink:href="#ckexRZz37" opacity="1" fill="#8f2d56" fill-opacity="1"></use><g><use xlink:href="#ckexRZz37" opacity="1" fill-opacity="0" stroke="#000000" stroke-width="1" stroke-opacity="0"></use></g></g><g><use xlink:href="#c3idHNOjWN" opacity="1" fill="#000000" fill-opacity="0"></use><g><use xlink:href="#c3idHNOjWN" opacity="1" fill-opacity="0" stroke="#2d255e" stroke-width="6" stroke-opacity="1"></use></g></g><g><use xlink:href="#aAzfILqgm" opacity="1" fill="#66cdfd" fill-opacity="1"></use><g><use xlink:href="#aAzfILqgm" opacity="1" fill-opacity="0" stroke="#000000" stroke-width="1" stroke-opacity="0"></use></g></g><g><use xlink:href="#a4e4vKdLS" opacity="1" fill="#3297d9" fill-opacity="1"></use><g><use xlink:href="#a4e4vKdLS" opacity="1" fill-opacity="0" stroke="#000000" stroke-width="1" stroke-opacity="0"></use></g></g><g><use xlink:href="#cmqJlw7lq" opacity="1" fill="#3297d9" fill-opacity="1"></use><g><use xlink:href="#cmqJlw7lq" opacity="1" fill-opacity="0" stroke="#000000" stroke-width="1" stroke-opacity="0"></use></g></g><g><use xlink:href="#b5TzN41Cj" opacity="1" fill="#3297d9" fill-opacity="1"></use><g><use xlink:href="#b5TzN41Cj" opacity="1" fill-opacity="0" stroke="#000000" stroke-width="1" stroke-opacity="0"></use></g></g><g><use xlink:href="#b1dqL34Y7" opacity="1" fill="#3297d9" fill-opacity="1"></use><g><use xlink:href="#b1dqL34Y7" opacity="1" fill-opacity="0" stroke="#000000" stroke-width="1" stroke-opacity="0"></use></g></g><g><use xlink:href="#b4IoqmvJWC" opacity="1" fill="#ffffff" fill-opacity="1"></use><g><use xlink:href="#b4IoqmvJWC" opacity="1" fill-opacity="0" stroke="#000000" stroke-width="1" stroke-opacity="0"></use></g></g><g><use xlink:href="#b15V5tjLM" opacity="1" fill="#ffffff" fill-opacity="1"></use><g><use xlink:href="#b15V5tjLM" opacity="1" fill-opacity="0" stroke="#000000" stroke-width="1" stroke-opacity="0"></use></g></g><g><use xlink:href="#a4RRFwG563" opacity="1" fill="#ffffff" fill-opacity="1"></use><g><use xlink:href="#a4RRFwG563" opacity="1" fill-opacity="0" stroke="#000000" stroke-width="1" stroke-opacity="0"></use></g></g><g><use xlink:href="#egSjVmfh0" opacity="1" fill="#000000" fill-opacity="0"></use><g><use xlink:href="#egSjVmfh0" opacity="1" fill-opacity="0" stroke="#2d255e" stroke-width="6" stroke-opacity="1"></use></g></g><g><use xlink:href="#agavK3hMf" opacity="1" fill="#d49d7f" fill-opacity="1"></use><g><use xlink:href="#agavK3hMf" opacity="1" fill-opacity="0" stroke="#000000" stroke-width="1" stroke-opacity="0"></use></g></g><g><use xlink:href="#bYMuO1dIv" opacity="1" fill="#000000" fill-opacity="0"></use><g><use xlink:href="#bYMuO1dIv" opacity="1" fill-opacity="0" stroke="#2d255e" stroke-width="6" stroke-opacity="1"></use></g></g><g><use xlink:href="#cbm5XbkY4" opacity="1" fill="#218380" fill-opacity="1"></use><g><use xlink:href="#cbm5XbkY4" opacity="1" fill-opacity="0" stroke="#000000" stroke-width="1" stroke-opacity="0"></use></g></g><g><use xlink:href="#e1Dfackuwu" opacity="1" fill="#000000" fill-opacity="0"></use><g><use xlink:href="#e1Dfackuwu" opacity="1" fill-opacity="0" stroke="#2d255e" stroke-width="6" stroke-opacity="1"></use></g></g><g><use xlink:href="#babyF9Vjuz" opacity="1" fill="#66cdfd" fill-opacity="1"></use><g><use xlink:href="#babyF9Vjuz" opacity="1" fill-opacity="0" stroke="#000000" stroke-width="1" stroke-opacity="0"></use></g></g><g><use xlink:href="#fx5tyLkW9" opacity="1" fill="#ffffff" fill-opacity="1"></use><g><use xlink:href="#fx5tyLkW9" opacity="1" fill-opacity="0" stroke="#000000" stroke-width="1" stroke-opacity="0"></use></g></g><g><use xlink:href="#aWiHwEwTO" opacity="1" fill="#ffffff" fill-opacity="1"></use><g><use xlink:href="#aWiHwEwTO" opacity="1" fill-opacity="0" stroke="#000000" stroke-width="1" stroke-opacity="0"></use></g></g><g><use xlink:href="#amk5rbkCM" opacity="1" fill="#ffffff" fill-opacity="1"></use><g><use xlink:href="#amk5rbkCM" opacity="1" fill-opacity="0" stroke="#000000" stroke-width="1" stroke-opacity="0"></use></g></g><g><use xlink:href="#a1k5jwv7V" opacity="1" fill="#000000" fill-opacity="0"></use><g><use xlink:href="#a1k5jwv7V" opacity="1" fill-opacity="0" stroke="#2d255e" stroke-width="6" stroke-opacity="1"></use></g></g><g><use xlink:href="#a2Uopnv8nd" opacity="1" fill="#8f2d56" fill-opacity="1"></use><g><use xlink:href="#a2Uopnv8nd" opacity="1" fill-opacity="0" stroke="#000000" stroke-width="1" stroke-opacity="0"></use></g></g><g><use xlink:href="#abJglpQRd" opacity="1" fill="#8f2d56" fill-opacity="1"></use><g><use xlink:href="#abJglpQRd" opacity="1" fill-opacity="0" stroke="#000000" stroke-width="1" stroke-opacity="0"></use></g></g><g><use xlink:href="#a1bu46uRhv" opacity="1" fill="#8f2d56" fill-opacity="1"></use><g><use xlink:href="#a1bu46uRhv" opacity="1" fill-opacity="0" stroke="#000000" stroke-width="1" stroke-opacity="0"></use></g></g><g><use xlink:href="#bvtYmkoBo" opacity="1" fill="#000000" fill-opacity="0"></use><g><use xlink:href="#bvtYmkoBo" opacity="1" fill-opacity="0" stroke="#2d255e" stroke-width="6" stroke-opacity="1"></use></g></g><g><use xlink:href="#fgd5bqAHO" opacity="1" fill="#f5969c" fill-opacity="1"></use><g><use xlink:href="#fgd5bqAHO" opacity="1" fill-opacity="0" stroke="#000000" stroke-width="1" stroke-opacity="0"></use></g></g><g><use xlink:href="#c5mKiHKom" opacity="1" fill="#8f2d56" fill-opacity="1"></use><g><use xlink:href="#c5mKiHKom" opacity="1" fill-opacity="0" stroke="#000000" stroke-width="1" stroke-opacity="0"></use></g></g><g><use xlink:href="#c1RdbLuBSR" opacity="1" fill="#8f2d56" fill-opacity="1"></use><g><use xlink:href="#c1RdbLuBSR" opacity="1" fill-opacity="0" stroke="#000000" stroke-width="1" stroke-opacity="0"></use></g></g><g><use xlink:href="#c5z2IAEZ5" opacity="1" fill="#8f2d56" fill-opacity="1"></use><g><use xlink:href="#c5z2IAEZ5" opacity="1" fill-opacity="0" stroke="#000000" stroke-width="1" stroke-opacity="0"></use></g></g><g><use xlink:href="#aA9eKYRXy" opacity="1" fill="#8f2d56" fill-opacity="1"></use><g><use xlink:href="#aA9eKYRXy" opacity="1" fill-opacity="0" stroke="#000000" stroke-width="1" stroke-opacity="0"></use></g></g><g><use xlink:href="#c20DSkFOiv" opacity="1" fill="#8f2d56" fill-opacity="1"></use><g><use xlink:href="#c20DSkFOiv" opacity="1" fill-opacity="0" stroke="#000000" stroke-width="1" stroke-opacity="0"></use></g></g><g><use xlink:href="#bVSc1ta46" opacity="1" fill="#000000" fill-opacity="0"></use><g><use xlink:href="#bVSc1ta46" opacity="1" fill-opacity="0" stroke="#2d255e" stroke-width="6" stroke-opacity="1"></use></g></g><g><use xlink:href="#bcwbHocbu" opacity="1" fill="#66cdfd" fill-opacity="1"></use><g><use xlink:href="#bcwbHocbu" opacity="1" fill-opacity="0" stroke="#000000" stroke-width="1" stroke-opacity="0"></use></g></g><g><use xlink:href="#cpu2gyXT0" opacity="1" fill="#3297d9" fill-opacity="1"></use><g><use xlink:href="#cpu2gyXT0" opacity="1" fill-opacity="0" stroke="#000000" stroke-width="1" stroke-opacity="0"></use></g></g><g><use xlink:href="#b95GU7q1va" opacity="1" fill="#3297d9" fill-opacity="1"></use><g><use xlink:href="#b95GU7q1va" opacity="1" fill-opacity="0" stroke="#000000" stroke-width="1" stroke-opacity="0"></use></g></g><g><use xlink:href="#h1KIeIPZo6" opacity="1" fill="#3297d9" fill-opacity="1"></use><g><use xlink:href="#h1KIeIPZo6" opacity="1" fill-opacity="0" stroke="#000000" stroke-width="1" stroke-opacity="0"></use></g></g><g><use xlink:href="#b2hakHwStG" opacity="1" fill="#3297d9" fill-opacity="1"></use><g><use xlink:href="#b2hakHwStG" opacity="1" fill-opacity="0" stroke="#000000" stroke-width="1" stroke-opacity="0"></use></g></g><g><use xlink:href="#a1HhXMLWza" opacity="1" fill="#ffffff" fill-opacity="1"></use><g><use xlink:href="#a1HhXMLWza" opacity="1" fill-opacity="0" stroke="#000000" stroke-width="1" stroke-opacity="0"></use></g></g><g><use xlink:href="#a1wuf2EyMj" opacity="1" fill="#ffffff" fill-opacity="1"></use><g><use xlink:href="#a1wuf2EyMj" opacity="1" fill-opacity="0" stroke="#000000" stroke-width="1" stroke-opacity="0"></use></g></g><g><use xlink:href="#bAQ3WIqYU" opacity="1" fill="#ffffff" fill-opacity="1"></use><g><use xlink:href="#bAQ3WIqYU" opacity="1" fill-opacity="0" stroke="#000000" stroke-width="1" stroke-opacity="0"></use></g></g><g><use xlink:href="#d9b9VGnEn" opacity="1" fill="#000000" fill-opacity="0"></use><g><use xlink:href="#d9b9VGnEn" opacity="1" fill-opacity="0" stroke="#2d255e" stroke-width="6" stroke-opacity="1"></use></g></g><g><use xlink:href="#e2b3v44ISX" opacity="1" fill="#282828" fill-opacity="1"></use><g><use xlink:href="#e2b3v44ISX" opacity="1" fill-opacity="0" stroke="#282828" stroke-width="6" stroke-opacity="1"></use></g></g><g><use xlink:href="#e6FBrrCuET" opacity="1" fill="#d49d7f" fill-opacity="1"></use><g><use xlink:href="#e6FBrrCuET" opacity="1" fill-opacity="0" stroke="#000000" stroke-width="1" stroke-opacity="0"></use></g></g><g><use xlink:href="#f4jmfcErPT" opacity="1" fill="#000000" fill-opacity="0"></use><g><use xlink:href="#f4jmfcErPT" opacity="1" fill-opacity="0" stroke="#2d255e" stroke-width="6" stroke-opacity="1"></use></g></g><g><use xlink:href="#c22iJyZjKj" opacity="1" fill="#8f2d56" fill-opacity="1"></use><g><use xlink:href="#c22iJyZjKj" opacity="1" fill-opacity="0" stroke="#000000" stroke-width="1" stroke-opacity="0"></use></g></g><g><use xlink:href="#a1rwhVkaaq" opacity="1" fill="#8f2d56" fill-opacity="1"></use><g><use xlink:href="#a1rwhVkaaq" opacity="1" fill-opacity="0" stroke="#000000" stroke-width="1" stroke-opacity="0"></use></g></g><g><use xlink:href="#bSBB2S6P" opacity="1" fill="#000000" fill-opacity="0"></use><g><use xlink:href="#bSBB2S6P" opacity="1" fill-opacity="0" stroke="#2d255e" stroke-width="6" stroke-opacity="1"></use></g></g><g><use xlink:href="#b18XGk8bQf" opacity="1" fill="#2d255e" fill-opacity="1"></use><g><use xlink:href="#b18XGk8bQf" opacity="1" fill-opacity="0" stroke="#000000" stroke-width="1" stroke-opacity="0"></use></g></g><g><use xlink:href="#b265HfcFn2" opacity="1" fill="#282828" fill-opacity="1"></use><g><use xlink:href="#b265HfcFn2" opacity="1" fill-opacity="0" stroke="#282828" stroke-width="6" stroke-opacity="1"></use></g></g><g><use xlink:href="#a1EJ1WnrEE" opacity="1" fill="#ffbc42" fill-opacity="1"></use><g><use xlink:href="#a1EJ1WnrEE" opacity="1" fill-opacity="0" stroke="#000000" stroke-width="1" stroke-opacity="0"></use></g></g><g><use xlink:href="#d2tLf5y0f9" opacity="1" fill="#d6d6d6" fill-opacity="1"></use><g><use xlink:href="#d2tLf5y0f9" opacity="1" fill-opacity="0" stroke="#000000" stroke-width="1" stroke-opacity="0"></use></g></g><g><use xlink:href="#bcjVOlOiO" opacity="1" fill="#ffbc42" fill-opacity="1"></use><g><use xlink:href="#bcjVOlOiO" opacity="1" fill-opacity="0" stroke="#000000" stroke-width="1" stroke-opacity="0"></use></g></g><g><use xlink:href="#eany41Y2N" opacity="1" fill="#d6d6d6" fill-opacity="1"></use><g><use xlink:href="#eany41Y2N" opacity="1" fill-opacity="0" stroke="#000000" stroke-width="1" stroke-opacity="0"></use></g></g><g><use xlink:href="#aiyp6vOnO" opacity="1" fill="#ffbc42" fill-opacity="1"></use><g><use xlink:href="#aiyp6vOnO" opacity="1" fill-opacity="0" stroke="#000000" stroke-width="1" stroke-opacity="0"></use></g></g><g><use xlink:href="#b5ORhCa5W" opacity="1" fill="#d6d6d6" fill-opacity="1"></use><g><use xlink:href="#b5ORhCa5W" opacity="1" fill-opacity="0" stroke="#000000" stroke-width="1" stroke-opacity="0"></use></g></g><g><use xlink:href="#a34h3H5lGF" opacity="1" fill="#ffbc42" fill-opacity="1"></use><g><use xlink:href="#a34h3H5lGF" opacity="1" fill-opacity="0" stroke="#000000" stroke-width="1" stroke-opacity="0"></use></g></g><g><use xlink:href="#b1ubXPhRQQ" opacity="1" fill="#d6d6d6" fill-opacity="1"></use><g><use xlink:href="#b1ubXPhRQQ" opacity="1" fill-opacity="0" stroke="#000000" stroke-width="1" stroke-opacity="0"></use></g></g><g><use xlink:href="#c1AR59xLDP" opacity="1" fill="#000000" fill-opacity="0"></use><g><use xlink:href="#c1AR59xLDP" opacity="1" fill-opacity="0" stroke="#2d255e" stroke-width="6" stroke-opacity="1"></use></g></g><g><use xlink:href="#b1cI0GrIEx" opacity="1" fill="#000000" fill-opacity="0"></use><g><use xlink:href="#b1cI0GrIEx" opacity="1" fill-opacity="0" stroke="#2d255e" stroke-width="6" stroke-opacity="1"></use></g></g><g><use xlink:href="#btqGxTOEN" opacity="1" fill="#000000" fill-opacity="0"></use><g><use xlink:href="#btqGxTOEN" opacity="1" fill-opacity="0" stroke="#2d255e" stroke-width="6" stroke-opacity="1"></use></g></g><g><use xlink:href="#asDuHjPr2" opacity="1" fill="#000000" fill-opacity="0"></use><g><use xlink:href="#asDuHjPr2" opacity="1" fill-opacity="0" stroke="#2d255e" stroke-width="6" stroke-opacity="1"></use></g></g><g><use xlink:href="#beOschPV3" opacity="1" fill="#000000" fill-opacity="0"></use><g><use xlink:href="#beOschPV3" opacity="1" fill-opacity="0" stroke="#2d255e" stroke-width="6" stroke-opacity="1"></use></g></g><g><use xlink:href="#byX8muSod" opacity="1" fill="#000000" fill-opacity="0"></use><g><use xlink:href="#byX8muSod" opacity="1" fill-opacity="0" stroke="#2d255e" stroke-width="6" stroke-opacity="1"></use></g></g><g><use xlink:href="#b9dS1ETaO" opacity="1" fill="#000000" fill-opacity="0"></use><g><use xlink:href="#b9dS1ETaO" opacity="1" fill-opacity="0" stroke="#2d255e" stroke-width="6" stroke-opacity="1"></use></g></g><g><use xlink:href="#b1jFK0f6SL" opacity="1" fill="#000000" fill-opacity="0"></use><g><use xlink:href="#b1jFK0f6SL" opacity="1" fill-opacity="0" stroke="#2d255e" stroke-width="6" stroke-opacity="1"></use></g></g><g><use xlink:href="#a1aDI21182" opacity="1" fill="#000000" fill-opacity="0"></use><g><use xlink:href="#a1aDI21182" opacity="1" fill-opacity="0" stroke="#2d255e" stroke-width="6" stroke-opacity="1"></use></g></g><g><use xlink:href="#a1TSN3UiZM" opacity="1" fill="#000000" fill-opacity="0"></use><g><use xlink:href="#a1TSN3UiZM" opacity="1" fill-opacity="0" stroke="#2d255e" stroke-width="6" stroke-opacity="1"></use></g></g><g><use xlink:href="#g103fpYIua" opacity="1" fill="#000000" fill-opacity="0"></use><g><use xlink:href="#g103fpYIua" opacity="1" fill-opacity="0" stroke="#2d255e" stroke-width="6" stroke-opacity="1"></use></g></g><g><use xlink:href="#aB3alK7i3" opacity="1" fill="#000000" fill-opacity="0"></use><g><use xlink:href="#aB3alK7i3" opacity="1" fill-opacity="0" stroke="#2d255e" stroke-width="6" stroke-opacity="1"></use></g></g><g><use xlink:href="#h1FkXlmZZ" opacity="1" fill="#000000" fill-opacity="0"></use><g><use xlink:href="#h1FkXlmZZ" opacity="1" fill-opacity="0" stroke="#2d255e" stroke-width="6" stroke-opacity="1"></use></g></g><g><use xlink:href="#f3BOqMVMZi" opacity="1" fill="#000000" fill-opacity="0"></use><g><use xlink:href="#f3BOqMVMZi" opacity="1" fill-opacity="0" stroke="#2d255e" stroke-width="6" stroke-opacity="1"></use></g></g><g><use xlink:href="#jiGhcom39" opacity="1" fill="#000000" fill-opacity="0"></use><g><use xlink:href="#jiGhcom39" opacity="1" fill-opacity="0" stroke="#2d255e" stroke-width="6" stroke-opacity="1"></use></g></g><g><use xlink:href="#ayrkDFLV3" opacity="1" fill="#000000" fill-opacity="0"></use><g><use xlink:href="#ayrkDFLV3" opacity="1" fill-opacity="0" stroke="#2d255e" stroke-width="6" stroke-opacity="1"></use></g></g><g><use xlink:href="#ak2G8kwYk" opacity="1" fill="#db6b7b" fill-opacity="1"></use><g><use xlink:href="#ak2G8kwYk" opacity="1" fill-opacity="0" stroke="#000000" stroke-width="1" stroke-opacity="0"></use></g></g><g><use xlink:href="#ehLcETToj" opacity="1" fill="#f5969c" fill-opacity="1"></use><g><use xlink:href="#ehLcETToj" opacity="1" fill-opacity="0" stroke="#000000" stroke-width="1" stroke-opacity="0"></use></g></g><g><use xlink:href="#bwthlyzC" opacity="1" fill="#000000" fill-opacity="0"></use><g><use xlink:href="#bwthlyzC" opacity="1" fill-opacity="0" stroke="#2d255e" stroke-width="6" stroke-opacity="1"></use></g></g><g><use xlink:href="#b4lcaC8R3l" opacity="1" fill="#000000" fill-opacity="0"></use><g><use xlink:href="#b4lcaC8R3l" opacity="1" fill-opacity="0" stroke="#2d255e" stroke-width="6" stroke-opacity="1"></use></g></g><g><use xlink:href="#aYGEumHzp" opacity="1" fill="#14a56a" fill-opacity="1"></use><g><use xlink:href="#aYGEumHzp" opacity="1" fill-opacity="0" stroke="#000000" stroke-width="1" stroke-opacity="0"></use></g></g><g><use xlink:href="#bxwOVpPiM" opacity="1" fill="#000000" fill-opacity="0"></use><g><use xlink:href="#bxwOVpPiM" opacity="1" fill-opacity="0" stroke="#2d255e" stroke-width="6" stroke-opacity="1"></use></g></g><g><use xlink:href="#bEQXvCzOG" opacity="1" fill="#000000" fill-opacity="0"></use><g><use xlink:href="#bEQXvCzOG" opacity="1" fill-opacity="0" stroke="#2d255e" stroke-width="6" stroke-opacity="1"></use></g></g><g><use xlink:href="#e1qzJ5aoMs" opacity="1" fill="#12b075" fill-opacity="1"></use><g><use xlink:href="#e1qzJ5aoMs" opacity="1" fill-opacity="0" stroke="#000000" stroke-width="1" stroke-opacity="0"></use></g></g><g><use xlink:href="#b8JrqhDXZt" opacity="1" fill="#000000" fill-opacity="0"></use><g><use xlink:href="#b8JrqhDXZt" opacity="1" fill-opacity="0" stroke="#2d255e" stroke-width="6" stroke-opacity="1"></use></g></g><g><use xlink:href="#a1erHrw2I6" opacity="1" fill="#69351f" fill-opacity="1"></use><g><use xlink:href="#a1erHrw2I6" opacity="1" fill-opacity="0" stroke="#000000" stroke-width="1" stroke-opacity="0"></use></g></g><g><use xlink:href="#bbDMORHaB" opacity="1" fill="#632d1b" fill-opacity="1"></use><g><use xlink:href="#bbDMORHaB" opacity="1" fill-opacity="0" stroke="#000000" stroke-width="1" stroke-opacity="0"></use></g></g><g><use xlink:href="#bAMA10RfF" opacity="1" fill="#562314" fill-opacity="1"></use><g><use xlink:href="#bAMA10RfF" opacity="1" fill-opacity="0" stroke="#000000" stroke-width="1" stroke-opacity="0"></use></g></g><g><use xlink:href="#iDuKrpgbP" opacity="1" fill="#562314" fill-opacity="1"></use><g><use xlink:href="#iDuKrpgbP" opacity="1" fill-opacity="0" stroke="#000000" stroke-width="1" stroke-opacity="0"></use></g></g><g><use xlink:href="#a25ZdrKid" opacity="1" fill="#562314" fill-opacity="1"></use><g><use xlink:href="#a25ZdrKid" opacity="1" fill-opacity="0" stroke="#000000" stroke-width="1" stroke-opacity="0"></use></g></g><g><use xlink:href="#d3q5W2Uw4h" opacity="1" fill="#000000" fill-opacity="0"></use><g><use xlink:href="#d3q5W2Uw4h" opacity="1" fill-opacity="0" stroke="#2d255e" stroke-width="6" stroke-opacity="1"></use></g></g><g><use xlink:href="#f1LuZsLOk" opacity="1" fill="#000000" fill-opacity="0"></use><g><use xlink:href="#f1LuZsLOk" opacity="1" fill-opacity="0" stroke="#2d255e" stroke-width="6" stroke-opacity="1"></use></g></g><g><use xlink:href="#g1zQXc9usg" opacity="1" fill="#000000" fill-opacity="0"></use><g><use xlink:href="#g1zQXc9usg" opacity="1" fill-opacity="0" stroke="#2d255e" stroke-width="6" stroke-opacity="1"></use></g></g><g><use xlink:href="#i1nP0jrXub" opacity="1" fill="#e8e8e8" fill-opacity="1"></use><g><use xlink:href="#i1nP0jrXub" opacity="1" fill-opacity="0" stroke="#000000" stroke-width="1" stroke-opacity="0"></use></g></g><g><use xlink:href="#bmWdWAsOe" opacity="1" fill="#000000" fill-opacity="0"></use><g><use xlink:href="#bmWdWAsOe" opacity="1" fill-opacity="0" stroke="#2d255e" stroke-width="3" stroke-opacity="1"></use></g></g><g><use xlink:href="#a3OwYnvrQs" opacity="1" fill="#d3d3d3" fill-opacity="1"></use><g><use xlink:href="#a3OwYnvrQs" opacity="1" fill-opacity="0" stroke="#000000" stroke-width="1" stroke-opacity="0"></use></g></g><g><use xlink:href="#a5UxwsKZxt" opacity="1" fill="#000000" fill-opacity="0"></use><g><use xlink:href="#a5UxwsKZxt" opacity="1" fill-opacity="0" stroke="#2d255e" stroke-width="2" stroke-opacity="1"></use></g></g><g><use xlink:href="#d16yq3NqN" opacity="1" fill="#2d255e" fill-opacity="1"></use><g><use xlink:href="#d16yq3NqN" opacity="1" fill-opacity="0" stroke="#000000" stroke-width="1" stroke-opacity="0"></use></g></g><g><use xlink:href="#j1BlAWH5wt" opacity="1" fill="#8f2d56" fill-opacity="1"></use><g><use xlink:href="#j1BlAWH5wt" opacity="1" fill-opacity="0" stroke="#000000" stroke-width="1" stroke-opacity="0"></use></g></g><g><use xlink:href="#b1lMHGYXfZ" opacity="1" fill="#000000" fill-opacity="0"></use><g><use xlink:href="#b1lMHGYXfZ" opacity="1" fill-opacity="0" stroke="#006837" stroke-width="6" stroke-opacity="1"></use></g></g><g><use xlink:href="#f29ynmRhTm" opacity="1" fill="#000000" fill-opacity="0"></use><g><use xlink:href="#f29ynmRhTm" opacity="1" fill-opacity="0" stroke="#006837" stroke-width="6" stroke-opacity="1"></use></g></g><g><use xlink:href="#b8gScsorHl" opacity="1" fill="#000000" fill-opacity="0"></use><g><use xlink:href="#b8gScsorHl" opacity="1" fill-opacity="0" stroke="#39d188" stroke-width="6" stroke-opacity="1"></use></g></g><g><use xlink:href="#c2Cexn4iqF" opacity="1" fill="#000000" fill-opacity="0"></use><g><use xlink:href="#c2Cexn4iqF" opacity="1" fill-opacity="0" stroke="#006837" stroke-width="6" stroke-opacity="1"></use></g></g><g><use xlink:href="#bgZoTAc71" opacity="1" fill="#000000" fill-opacity="0"></use><g><use xlink:href="#bgZoTAc71" opacity="1" fill-opacity="0" stroke="#39d188" stroke-width="6" stroke-opacity="1"></use></g></g><g><use xlink:href="#a3eUQIxd8L" opacity="1" fill="#d6d6d6" fill-opacity="1"></use><g><use xlink:href="#a3eUQIxd8L" opacity="1" fill-opacity="0" stroke="#000000" stroke-width="1" stroke-opacity="0"></use></g></g><g><use xlink:href="#fRT7foR7" opacity="1" fill="#000000" fill-opacity="0"></use><g><use xlink:href="#fRT7foR7" opacity="1" fill-opacity="0" stroke="#2d255e" stroke-width="6" stroke-opacity="1"></use></g></g><g><use xlink:href="#a7WcW4k1T" opacity="1" fill="#d6d6d6" fill-opacity="1"></use><g><use xlink:href="#a7WcW4k1T" opacity="1" fill-opacity="0" stroke="#000000" stroke-width="1" stroke-opacity="0"></use></g></g><g><use xlink:href="#b5oFidH5IU" opacity="1" fill="#ffffff" fill-opacity="1"></use><g><use xlink:href="#b5oFidH5IU" opacity="1" fill-opacity="0" stroke="#000000" stroke-width="1" stroke-opacity="0"></use></g></g><g><use xlink:href="#dgszm1bAx" opacity="1" fill="#000000" fill-opacity="0"></use><g><use xlink:href="#dgszm1bAx" opacity="1" fill-opacity="0" stroke="#2d255e" stroke-width="6" stroke-opacity="1"></use></g></g><g><use xlink:href="#afwCkvjmX" opacity="1" fill="#2d255e" fill-opacity="1"></use><g><use xlink:href="#afwCkvjmX" opacity="1" fill-opacity="0" stroke="#000000" stroke-width="1" stroke-opacity="0"></use></g></g><g><use xlink:href="#b4vVelspNB" opacity="1" fill="#000000" fill-opacity="0"></use><g><use xlink:href="#b4vVelspNB" opacity="1" fill-opacity="0" stroke="#2d255e" stroke-width="8" stroke-opacity="1"></use></g></g><g><use xlink:href="#kbsQEDnH3" opacity="1" fill="#8f2d56" fill-opacity="1"></use><g><use xlink:href="#kbsQEDnH3" opacity="1" fill-opacity="0" stroke="#000000" stroke-width="1" stroke-opacity="0"></use></g></g><g><use xlink:href="#c5uqDgaZ7L" opacity="1" fill="#8f2d56" fill-opacity="1"></use><g><use xlink:href="#c5uqDgaZ7L" opacity="1" fill-opacity="0" stroke="#000000" stroke-width="1" stroke-opacity="0"></use></g></g></g></g></svg>